{
	"asset":{
		"generator":"Khronos glTF Blender I/O v4.4.56",
		"version":"2.0"
	},
	"scene":0,
	"scenes":[
		{
			"name":"Scene",
			"nodes":[
				30
			]
		}
	],
	"nodes":[
		{
			"name":"spine.006",
			"rotation":[
				-0.13060113787651062,
				-8.062662679424876e-15,
				-3.113773772156492e-08,
				0.9914350509643555
			],
			"scale":[
				0.9999999403953552,
				0.9999999403953552,
				0.9999999403953552
			],
			"translation":[
				-7.080688813054792e-11,
				0.09393588453531265,
				5.584230855504302e-09
			]
		},
		{
			"children":[
				0
			],
			"name":"spine.005",
			"rotation":[
				-0.019821757450699806,
				-1.064982486692536e-14,
				-4.725871249888769e-09,
				0.9998035430908203
			],
			"scale":[
				1,
				0.9999997615814209,
				0.9999997615814209
			],
			"translation":[
				3.342215393331571e-11,
				0.046194080263376236,
				-1.478845046420929e-08
			]
		},
		{
			"children":[
				1
			],
			"name":"spine.004",
			"rotation":[
				0.3686298131942749,
				1.1081414896807473e-07,
				4.394410524355408e-08,
				0.9295763373374939
			],
			"translation":[
				5.820766091346741e-11,
				0.21261492371559143,
				0.03546193614602089
			]
		},
		{
			"name":"hand.L",
			"rotation":[
				0.06497050821781158,
				-0.020563233643770218,
				0.06840383261442184,
				0.9953275322914124
			],
			"scale":[
				0.9999998807907104,
				0.9999998807907104,
				1
			],
			"translation":[
				-3.958120942115784e-09,
				0.3036233186721802,
				5.216861609369516e-09
			]
		},
		{
			"children":[
				3
			],
			"name":"forearm.L",
			"rotation":[
				0.0008853701292537153,
				0.13272473216056824,
				-0.00973301101475954,
				0.991104781627655
			],
			"scale":[
				0.9999999403953552,
				1,
				1
			],
			"translation":[
				2.8870999813079834e-08,
				0.31637683510780334,
				-5.587935447692871e-09
			]
		},
		{
			"children":[
				4
			],
			"name":"upper_arm.L",
			"rotation":[
				-0.3692631423473358,
				0.5664895176887512,
				-0.457706481218338,
				0.577268660068512
			],
			"scale":[
				1.0000001192092896,
				1,
				0.9999999403953552
			],
			"translation":[
				-0.04971044138073921,
				0.20110802352428436,
				-0.02266569808125496
			]
		},
		{
			"children":[
				5
			],
			"name":"shoulder.L",
			"rotation":[
				-0.4975523054599762,
				-0.3923346996307373,
				-0.4793991148471832,
				0.6071999073028564
			],
			"translation":[
				0.018300002440810204,
				0.15908385813236237,
				0.14240585267543793
			]
		},
		{
			"name":"hand.R",
			"rotation":[
				0.06497050821781158,
				0.020563233643770218,
				-0.06840383261442184,
				0.9953275322914124
			],
			"scale":[
				0.9999998807907104,
				0.9999998807907104,
				1
			],
			"translation":[
				6.356276571750641e-08,
				0.3036233186721802,
				-5.959009286016226e-09
			]
		},
		{
			"children":[
				7
			],
			"name":"forearm.R",
			"rotation":[
				0.0008853701292537153,
				-0.13272473216056824,
				0.00973301101475954,
				0.991104781627655
			],
			"scale":[
				0.9999999403953552,
				1,
				1
			],
			"translation":[
				-5.8673322200775146e-08,
				0.31637680530548096,
				1.862645149230957e-09
			]
		},
		{
			"children":[
				8
			],
			"name":"upper_arm.R",
			"rotation":[
				-0.3692631423473358,
				-0.5664895176887512,
				0.457706481218338,
				0.577268660068512
			],
			"scale":[
				1.0000001192092896,
				1,
				0.9999999403953552
			],
			"translation":[
				0.04971044883131981,
				0.20110800862312317,
				-0.022665610536932945
			]
		},
		{
			"children":[
				9
			],
			"name":"shoulder.R",
			"rotation":[
				-0.4975523054599762,
				0.3923346996307373,
				0.4793991148471832,
				0.6071999073028564
			],
			"translation":[
				-0.018300002440810204,
				0.15908385813236237,
				0.14240585267543793
			]
		},
		{
			"name":"breast.L",
			"rotation":[
				5.841411621076986e-08,
				-0.6335298418998718,
				-0.7737182974815369,
				4.783017004683643e-08
			],
			"scale":[
				1,
				1.0000003576278687,
				1.0000001192092896
			],
			"translation":[
				0.11840000003576279,
				0.03950539603829384,
				-0.0009009875357151031
			]
		},
		{
			"name":"breast.R",
			"rotation":[
				5.841411621076986e-08,
				-0.6335298418998718,
				-0.7737182974815369,
				4.783017004683643e-08
			],
			"scale":[
				1,
				1.0000003576278687,
				1.0000001192092896
			],
			"translation":[
				-0.11840000003576279,
				0.03950539603829384,
				-0.0009009875357151031
			]
		},
		{
			"children":[
				2,
				6,
				10,
				11,
				12
			],
			"name":"spine.003",
			"rotation":[
				-0.07696996629238129,
				-1.1885566664204816e-07,
				-9.175535886640773e-09,
				0.997033417224884
			],
			"scale":[
				1,
				0.9999999403953552,
				1
			],
			"translation":[
				9.300560321889861e-12,
				0.16344940662384033,
				-5.4752247180545055e-09
			]
		},
		{
			"children":[
				13
			],
			"name":"spine.002",
			"rotation":[
				-0.08961115777492523,
				-6.91118745620254e-15,
				-2.1364968461057288e-08,
				0.9959768056869507
			],
			"scale":[
				0.9999999403953552,
				1,
				0.9999999403953552
			],
			"translation":[
				4.988010005035903e-11,
				0.11447259783744812,
				1.1288581625024108e-08
			]
		},
		{
			"children":[
				14
			],
			"name":"spine.001",
			"rotation":[
				0.04056286811828613,
				1.1911121333696428e-07,
				4.8354720227905545e-09,
				0.9991769790649414
			],
			"scale":[
				0.9999999403953552,
				1.0000001192092896,
				1
			],
			"translation":[
				-2.9103830456733704e-11,
				0.13462452590465546,
				-2.7939677238464355e-09
			]
		},
		{
			"name":"pelvis.L",
			"rotation":[
				-0.10712611675262451,
				-0.7645788788795471,
				-0.3405814468860626,
				0.5366073250770569
			],
			"scale":[
				1,
				0.9999997615814209,
				1
			],
			"translation":[
				-2.9103830456733704e-11,
				2.3283064365386963e-09,
				-5.005858838558197e-09
			]
		},
		{
			"name":"pelvis.R",
			"rotation":[
				-0.10712611675262451,
				0.7645788788795471,
				0.3405814468860626,
				0.5366073250770569
			],
			"scale":[
				1,
				0.9999997615814209,
				1
			],
			"translation":[
				-2.9103830456733704e-11,
				2.3283064365386963e-09,
				-5.005858838558197e-09
			]
		},
		{
			"name":"toe.L",
			"rotation":[
				0.0828123539686203,
				0.9792157411575317,
				-0.18493609130382538,
				0.00879229698330164
			],
			"scale":[
				0.9999999403953552,
				1.000000238418579,
				1.0000001192092896
			],
			"translation":[
				1.1175870895385742e-08,
				0.12308575958013535,
				3.722379915416241e-08
			]
		},
		{
			"name":"heel.02.L",
			"rotation":[
				0.6992360353469849,
				0.6456812024116516,
				-0.22396600246429443,
				0.20977158844470978
			],
			"scale":[
				0.9999999403953552,
				0.9999998211860657,
				1
			],
			"translation":[
				-0.03143993765115738,
				0.00988468062132597,
				0.12849479913711548
			]
		},
		{
			"children":[
				18,
				19
			],
			"name":"foot.L",
			"rotation":[
				-0.48649173974990845,
				0.019173452630639076,
				0.03591829538345337,
				0.8727359771728516
			],
			"scale":[
				0.9999998807907104,
				0.9999998211860657,
				0.9999998211860657
			],
			"translation":[
				-2.5920599000528455e-09,
				0.49733370542526245,
				1.7043930711224675e-09
			]
		},
		{
			"children":[
				20
			],
			"name":"shin.L",
			"rotation":[
				0.0768657848238945,
				0.0008538110414519906,
				0.0033333618193864822,
				0.9970355033874512
			],
			"scale":[
				0.9999999403953552,
				0.9999998807907104,
				0.9999999403953552
			],
			"translation":[
				-3.36058292305097e-10,
				0.4892495274543762,
				3.481090971035883e-09
			]
		},
		{
			"children":[
				21
			],
			"name":"thigh.L",
			"rotation":[
				0.9976082444190979,
				0.006542677991092205,
				-0.00042667583329603076,
				0.06881025433540344
			],
			"scale":[
				0.9999998807907104,
				0.9999999403953552,
				0.9999933838844299
			],
			"translation":[
				0.09799998998641968,
				0.06431267410516739,
				0.039397113025188446
			]
		},
		{
			"name":"toe.R",
			"rotation":[
				0.0828123539686203,
				-0.9792157411575317,
				0.18493609130382538,
				0.00879229698330164
			],
			"scale":[
				0.9999999403953552,
				1.000000238418579,
				1.0000001192092896
			],
			"translation":[
				-1.1175870895385742e-08,
				0.12308576703071594,
				5.8353180065751076e-08
			]
		},
		{
			"name":"heel.02.R",
			"rotation":[
				0.6992360353469849,
				-0.6456812024116516,
				0.22396600246429443,
				0.20977158844470978
			],
			"scale":[
				0.9999999403953552,
				0.9999998211860657,
				1
			],
			"translation":[
				0.03143995255231857,
				0.00988469272851944,
				0.12849481403827667
			]
		},
		{
			"children":[
				23,
				24
			],
			"name":"foot.R",
			"rotation":[
				-0.48649173974990845,
				-0.019173452630639076,
				-0.03591829538345337,
				0.8727359771728516
			],
			"scale":[
				0.9999998807907104,
				0.9999998211860657,
				0.9999998211860657
			],
			"translation":[
				2.5920599000528455e-09,
				0.49733370542526245,
				-1.800799509510398e-10
			]
		},
		{
			"children":[
				25
			],
			"name":"shin.R",
			"rotation":[
				0.0768657848238945,
				-0.0008538110414519906,
				-0.0033333618193864822,
				0.9970355033874512
			],
			"scale":[
				0.9999999403953552,
				0.9999998807907104,
				0.9999999403953552
			],
			"translation":[
				-7.114522304618731e-09,
				0.4892495274543762,
				3.037257556570694e-09
			]
		},
		{
			"children":[
				26
			],
			"name":"thigh.R",
			"rotation":[
				0.9976082444190979,
				-0.006542677991092205,
				0.00042667583329603076,
				0.06881025433540344
			],
			"scale":[
				0.9999998807907104,
				0.9999999403953552,
				0.9999933838844299
			],
			"translation":[
				-0.09799999743700027,
				0.06431267410516739,
				0.039397113025188446
			]
		},
		{
			"children":[
				15,
				16,
				17,
				22,
				27
			],
			"name":"spine",
			"rotation":[
				0.02690908871591091,
				0,
				0,
				0.9996379017829895
			],
			"scale":[
				0.9999999403953552,
				0.9999998807907104,
				0.9999998807907104
			],
			"translation":[
				8.731149137020111e-11,
				1.0098999738693237,
				-0.05519999563694
			]
		},
		{
			"mesh":0,
			"name":"Cube",
			"skin":0
		},
		{
			"children":[
				29,
				28
			],
			"name":"metarig",
			"scale":[
				1.633952021598816,
				1.633952021598816,
				1.633952021598816
			],
			"translation":[
				0.0007724389433860779,
				-1.613930583000183,
				-0.03619396686553955
			]
		}
	],
	"meshes":[
		{
			"name":"Cube.001",
			"primitives":[
				{
					"attributes":{
						"POSITION":0,
						"NORMAL":1,
						"TEXCOORD_0":2,
						"JOINTS_0":3,
						"JOINTS_1":4,
						"WEIGHTS_0":5,
						"WEIGHTS_1":6
					},
					"indices":7
				}
			]
		}
	],
	"skins":[
		{
			"inverseBindMatrices":8,
			"joints":[
				28,
				15,
				14,
				13,
				2,
				1,
				0,
				6,
				5,
				4,
				3,
				10,
				9,
				8,
				7,
				11,
				12,
				16,
				17,
				22,
				21,
				20,
				18,
				19,
				27,
				26,
				25,
				23,
				24
			],
			"name":"metarig"
		}
	],
	"accessors":[
		{
			"bufferView":0,
			"componentType":5126,
			"count":3332,
			"max":[
				0.7576761245727539,
				1.5873792171478271,
				0.40196359157562256
			],
			"min":[
				-0.7576678395271301,
				-1.6668108701705933,
				-0.2659417986869812
			],
			"type":"VEC3"
		},
		{
			"bufferView":1,
			"componentType":5126,
			"count":3332,
			"type":"VEC3"
		},
		{
			"bufferView":2,
			"componentType":5126,
			"count":3332,
			"type":"VEC2"
		},
		{
			"bufferView":3,
			"componentType":5121,
			"count":3332,
			"type":"VEC4"
		},
		{
			"bufferView":4,
			"componentType":5121,
			"count":3332,
			"type":"VEC4"
		},
		{
			"bufferView":5,
			"componentType":5126,
			"count":3332,
			"type":"VEC4"
		},
		{
			"bufferView":6,
			"componentType":5126,
			"count":3332,
			"type":"VEC4"
		},
		{
			"bufferView":7,
			"componentType":5123,
			"count":4224,
			"type":"SCALAR"
		},
		{
			"bufferView":8,
			"componentType":5126,
			"count":29,
			"type":"MAT4"
		}
	],
	"bufferViews":[
		{
			"buffer":0,
			"byteLength":39984,
			"byteOffset":0,
			"target":34962
		},
		{
			"buffer":0,
			"byteLength":39984,
			"byteOffset":39984,
			"target":34962
		},
		{
			"buffer":0,
			"byteLength":26656,
			"byteOffset":79968,
			"target":34962
		},
		{
			"buffer":0,
			"byteLength":13328,
			"byteOffset":106624,
			"target":34962
		},
		{
			"buffer":0,
			"byteLength":13328,
			"byteOffset":119952,
			"target":34962
		},
		{
			"buffer":0,
			"byteLength":53312,
			"byteOffset":133280,
			"target":34962
		},
		{
			"buffer":0,
			"byteLength":53312,
			"byteOffset":186592,
			"target":34962
		},
		{
			"buffer":0,
			"byteLength":8448,
			"byteOffset":239904,
			"target":34963
		},
		{
			"buffer":0,
			"byteLength":1856,
			"byteOffset":248352
		}
	],
	"buffers":[
		{
			"byteLength":250208,
			"uri":"male_npc-2dae0d6e65095d10062aafd3d3289142.bin"
		}
	]
}
